<svg xmlns="http://www.w3.org/2000/svg" viewBox="0 0 512 512" role="img" aria-label="Vinyl record">
  <defs>
    <radialGradient id="disc" cx="38%" cy="32%" r="72%">
      <stop offset="0" stop-color="#25282d"/>
      <stop offset=".34" stop-color="#141619"/>
      <stop offset=".72" stop-color="#090a0c"/>
      <stop offset="1" stop-color="#15171a"/>
    </radialGradient>
    <radialGradient id="label" cx="38%" cy="32%" r="72%">
      <stop offset="0" stop-color="#25282c"/>
      <stop offset=".62" stop-color="#111316"/>
      <stop offset="1" stop-color="#08090b"/>
    </radialGradient>
  </defs>
  <circle cx="256" cy="256" r="236" fill="url(#disc)" stroke="#2c3035" stroke-width="2"/>
  <g fill="none" stroke="#3b4047" stroke-opacity=".62" stroke-width="1">
    <circle cx="256" cy="256" r="222"/><circle cx="256" cy="256" r="214"/>
    <circle cx="256" cy="256" r="205"/><circle cx="256" cy="256" r="196"/>
    <circle cx="256" cy="256" r="187"/><circle cx="256" cy="256" r="178"/>
    <circle cx="256" cy="256" r="169"/><circle cx="256" cy="256" r="160"/>
    <circle cx="256" cy="256" r="151"/><circle cx="256" cy="256" r="142"/>
    <circle cx="256" cy="256" r="133"/><circle cx="256" cy="256" r="124"/>
    <circle cx="256" cy="256" r="115"/>
  </g>
  <g fill="none" stroke="#050608" stroke-opacity=".9" stroke-width="2">
    <circle cx="256" cy="256" r="218"/><circle cx="256" cy="256" r="200"/>
    <circle cx="256" cy="256" r="182"/><circle cx="256" cy="256" r="164"/>
    <circle cx="256" cy="256" r="146"/><circle cx="256" cy="256" r="128"/>
  </g>
  <path d="M92 164c74-96 224-131 334-45" fill="none" stroke="#fff" stroke-opacity=".055" stroke-width="8" stroke-linecap="round"/>
  <circle cx="256" cy="256" r="91" fill="url(#label)" stroke="#33383f" stroke-width="2"/>
  <circle cx="256" cy="256" r="77" fill="none" stroke="#060708" stroke-width="3"/>
  <circle cx="256" cy="256" r="17" fill="#050608" stroke="#3f454c" stroke-width="2"/>
  <circle cx="256" cy="256" r="8" fill="#000"/>
</svg>
